<?xml version="1.0" encoding="UTF-8" standalone="no"?>
<!-- Created with Inkscape (http://www.inkscape.org/) -->

<svg
   width="100mm"
   height="100mm"
   viewBox="0 0 100 100"
   version="1.1"
   id="svg1"
   inkscape:version="1.3.2 (091e20e, 2023-11-25, custom)"
   sodipodi:docname="drawing.svg"
   xmlns:inkscape="http://www.inkscape.org/namespaces/inkscape"
   xmlns:sodipodi="http://sodipodi.sourceforge.net/DTD/sodipodi-0.dtd"
   xmlns="http://www.w3.org/2000/svg"
   xmlns:svg="http://www.w3.org/2000/svg">
  <sodipodi:namedview
     id="namedview1"
     pagecolor="#ffffff"
     bordercolor="#000000"
     borderopacity="0.25"
     inkscape:showpageshadow="2"
     inkscape:pageopacity="0.0"
     inkscape:pagecheckerboard="0"
     inkscape:deskcolor="#d1d1d1"
     inkscape:document-units="mm"
     inkscape:zoom="0.72426347"
     inkscape:cx="396.95499"
     inkscape:cy="351.39146"
     inkscape:window-width="1920"
     inkscape:window-height="1009"
     inkscape:window-x="-8"
     inkscape:window-y="-8"
     inkscape:window-maximized="1"
     inkscape:current-layer="svg1" />
  <defs
     id="defs1" />
  <g
     inkscape:label="Layer 1"
     id="layer1"
     transform="matrix(0.6725353,0,0,0.60336119,3.4933536,-78.591666)">
    <path
       style="fill:#aa0000;stroke:#000000;stroke-width:0.162596"
       d="m 18.764181,210.12654 c 0,0 -35.590306,85.59502 19.257767,86.21528 54.848072,0.62025 73.862072,-9.30381 73.862072,-9.30381 0,0 16.57631,-4.13503 16.82008,-21.50213 0.24376,-17.36711 0.48754,-28.32493 -2.92523,-63.26589 -3.41277,-34.94097 -17.55139,-54.78909 -17.55139,-54.78909 0,0 4.14408,33.28696 -3.16899,37.00848 -7.313081,3.72152 -15.845005,-23.15614 -13.894851,-38.24898 1.950154,-15.09285 2.681461,-16.1266 2.925228,-15.2996 0.243774,0.82701 -17.551382,9.51056 -33.396381,28.32493 -15.844998,18.81436 -11.213385,40.31649 -10.238308,44.45152 0.975078,4.13502 6.094231,21.70888 6.094231,21.70888 0,0 -23.889384,-6.82279 -26.570844,-37.21523 -2.681461,-30.39243 -2.437692,-28.32492 -2.437692,-28.32492 0,0 -4.387846,34.52746 -8.775692,50.24056 z"
       id="path1" />
  </g>
  <g
     id="layer2"
     inkscape:label="Layer 2"
     style="fill:#ff6600"
     transform="matrix(0.44877437,0,0,0.34147559,4.1459736,1.2448908)">
    <path
       style="fill:#ff6600;stroke:#000000;stroke-width:0.264583"
       d="m 38.357934,162.92989 c 0,0 -21.553506,49.31734 -11.324725,80.00369 10.228784,30.68636 17.900369,32.87822 17.900369,32.87822 0,0 12.420664,8.0369 34.704798,4.74908 22.284134,-3.28782 48.586714,-6.94094 69.774904,-17.16974 21.18819,-10.22878 25.20664,-36.89668 24.1107,-61.73801 -1.09594,-24.84132 -8.0369,-72.3321 -8.0369,-72.3321 0,0 -2.19188,29.59041 -6.94096,29.95572 -4.74907,0.36531 -22.64944,-8.40221 -26.66789,-22.64945 -4.01845,-14.24723 -13.88192,-31.78228 -16.43912,-62.833943 -2.55719,-31.051661 -1.82657,-31.051661 -1.82657,-31.051661 0,0 -34.339477,51.874538 -20.092247,106.306274 14.247237,54.43173 15.343177,58.08487 15.343177,58.08487 0,0 -37.627308,26.66789 -70.505536,-44.20295 z"
       id="path2" />
  </g>
  <g
     id="layer3"
     inkscape:label="Layer 3"
     transform="matrix(0.44877437,0,0,0.34147559,5.1287198,-0.9592715)">
    <path
       style="fill:#ffd42a;stroke:#000000;stroke-width:0.264583"
       d="m 41.280442,208.59409 c 0,0 -6.94096,30.68635 8.402214,46.39484 15.343174,15.70847 14.612546,13.51661 24.841329,17.53505 10.228781,4.01846 56.258305,-7.30626 56.258305,-7.30626 0,0 32.87822,-16.80444 24.1107,-47.12547 -8.76753,-30.32104 -40.54982,-93.5203 -40.54982,-93.5203 0,0 -1.46125,71.60148 0.36532,99.73063 1.82656,28.12915 -73.428048,-15.70849 -73.428048,-15.70849 z"
       id="path3" />
  </g>
</svg>
